<?xml version="1.0" encoding="UTF-8" standalone="no"?>
<!-- Created with Inkscape (http://www.inkscape.org/) -->

<svg
   width="12.220485mm"
   height="8.4232302mm"
   viewBox="0 0 12.220485 8.4232302"
   version="1.1"
   id="svg1"
   xml:space="preserve"
   inkscape:version="1.3 (0e150ed, 2023-07-21)"
   sodipodi:docname="stratoSoarLogo.svg"
   inkscape:export-filename="stratoSoarLogo.png"
   inkscape:export-xdpi="96"
   inkscape:export-ydpi="96"
   xmlns:inkscape="http://www.inkscape.org/namespaces/inkscape"
   xmlns:sodipodi="http://sodipodi.sourceforge.net/DTD/sodipodi-0.dtd"
   xmlns:xlink="http://www.w3.org/1999/xlink"
   xmlns="http://www.w3.org/2000/svg"
   xmlns:svg="http://www.w3.org/2000/svg"><sodipodi:namedview
     id="namedview1"
     pagecolor="#ffffff"
     bordercolor="#111111"
     borderopacity="1"
     inkscape:showpageshadow="0"
     inkscape:pageopacity="0"
     inkscape:pagecheckerboard="1"
     inkscape:deskcolor="#d1d1d1"
     inkscape:document-units="mm"
     inkscape:zoom="9.2070836"
     inkscape:cx="22.591301"
     inkscape:cy="7.9829839"
     inkscape:window-width="1440"
     inkscape:window-height="802"
     inkscape:window-x="0"
     inkscape:window-y="25"
     inkscape:window-maximized="0"
     inkscape:current-layer="layer1"
     inkscape:export-bgcolor="#ffffffff"
     showgrid="false" /><defs
     id="defs1"><color-profile
       name="ACES-CG-Linear-Academy-Color-Encoding-System-AP1"
       xlink:href="file:///System/Library/ColorSync/Profiles/ACESCG%20Linear.icc"
       id="color-profile1" /></defs><g
     inkscape:label="Layer 1"
     inkscape:groupmode="layer"
     id="layer1"
     transform="translate(-95.779117,-118.10037)"><path
       d="m 100.28324,121.42811 q 0,0.072 -0.0187,0.12998 -0.0178,0.0571 -0.0477,0.10105 -0.0299,0.0441 -0.0702,0.075 -0.0402,0.0309 -0.0833,0.0505 -0.043,0.0195 -0.08794,0.029 -0.04397,0.01 -0.08326,0.01 h -0.93825 v -0.24325 h 0.93831 q 0.07016,0 0.10851,-0.0411 0.0393,-0.0412 0.0393,-0.11045 0,-0.0335 -0.0103,-0.0618 -0.0103,-0.0281 -0.02994,-0.0488 -0.01871,-0.0204 -0.04678,-0.0318 -0.02713,-0.0109 -0.06081,-0.0109 h -0.559414 q -0.05894,0 -0.127231,-0.0204 -0.06829,-0.0216 -0.127229,-0.0683 -0.05801,-0.0467 -0.09729,-0.1226 -0.03836,-0.0759 -0.03836,-0.18523 0,-0.1095 0.03836,-0.1843 0.03929,-0.0758 0.09729,-0.1226 0.05894,-0.0478 0.127229,-0.0682 0.06829,-0.0216 0.127231,-0.0216 h 0.827914 v 0.24322 h -0.827914 q -0.06923,0 -0.108513,0.0421 -0.03836,0.0421 -0.03836,0.11128 0,0.0702 0.03836,0.11127 0.03929,0.0403 0.108513,0.0403 h 0.559431 0.0019 q 0.03929,7.8e-4 0.08326,0.011 0.04398,0.01 0.087,0.03 0.044,0.0204 0.0833,0.0524 0.0393,0.0309 0.0692,0.075 0.0309,0.044 0.0486,0.10116 0.0178,0.0571 0.0178,0.12901 z m 1.05151,-0.37324 h -0.42472 v 0.76803 h -0.24604 v -0.76803 h -0.3162 v -0.24325 h 0.3162 v -0.33024 h 0.24604 v 0.33024 h 0.42472 z m 1.03935,0 h -0.54728 q -0.0497,0 -0.0748,0.0252 -0.0252,0.0243 -0.0252,0.072 v 0.67076 h -0.24322 v -0.67076 q 0,-0.0627 0.0159,-0.11223 0.0159,-0.0497 0.0421,-0.087 0.0272,-0.0383 0.0618,-0.0645 0.0347,-0.0271 0.0721,-0.0441 0.0383,-0.0168 0.0766,-0.0243 0.0393,-0.009 0.0729,-0.009 h 0.54915 z m 1.1254,0.43313 q 0,0.0504 -0.0179,0.10949 -0.0179,0.058 -0.058,0.10854 -0.0392,0.0495 -0.10371,0.0833 -0.0637,0.0335 -0.1553,0.0335 h -0.43874 q -0.0505,0 -0.1095,-0.0179 -0.058,-0.0179 -0.10854,-0.0571 -0.0497,-0.0402 -0.0833,-0.10371 -0.0335,-0.0645 -0.0335,-0.15623 0,-0.0505 0.0179,-0.10949 0.0179,-0.059 0.0571,-0.10853 0.0403,-0.0506 0.10371,-0.0842 0.0646,-0.0335 0.15625,-0.0335 h 0.43873 v 0.23202 h -0.43873 q -0.0497,0 -0.0766,0.0309 -0.0271,0.03 -0.0271,0.075 0,0.0478 0.0309,0.075 0.0318,0.0262 0.075,0.0262 h 0.43689 q 0.0497,0 0.0766,-0.03 0.0272,-0.03 0.0272,-0.075 v -0.33959 q 0,-0.0478 -0.03,-0.0759 -0.029,-0.028 -0.074,-0.028 h -0.53416 v -0.23105 h 0.53416 q 0.0505,0 0.10855,0.0179 0.0589,0.0179 0.10853,0.058 0.0505,0.0392 0.0842,0.10372 0.0335,0.0636 0.0335,0.15529 z m 1.12354,-0.43313 h -0.42472 v 0.76803 h -0.24603 v -0.76803 h -0.31621 v -0.24325 h 0.31621 v -0.33024 h 0.24603 v 0.33024 h 0.42472 z m 1.25638,0.42657 q 0,0.0627 -0.0159,0.11319 -0.0158,0.0497 -0.0421,0.088 -0.0262,0.0374 -0.0608,0.0645 -0.0345,0.0262 -0.0729,0.043 -0.0374,0.0168 -0.0766,0.0252 -0.0383,0.006 -0.0729,0.006 h -0.43873 q -0.0505,0 -0.11045,-0.0179 -0.0598,-0.0179 -0.11127,-0.058 -0.0505,-0.0412 -0.0851,-0.10584 -0.0335,-0.0654 -0.0335,-0.15996 v -0.32932 q 0,-0.0935 0.0335,-0.15809 0.0345,-0.0654 0.0851,-0.10584 0.0513,-0.0412 0.11127,-0.059 0.0598,-0.0179 0.11045,-0.0179 h 0.43873 q 0.0937,0 0.15904,0.0335 0.0654,0.0335 0.10584,0.0851 0.0403,0.0505 0.058,0.11045 0.0189,0.0598 0.0189,0.11127 z m -0.24323,-0.32742 q 0,-0.0505 -0.0252,-0.075 -0.0252,-0.0243 -0.0729,-0.0243 h -0.43689 q -0.0488,0 -0.0739,0.0252 -0.0252,0.0243 -0.0252,0.072 v 0.3293 q 0,0.0478 0.0252,0.0729 0.0252,0.0252 0.0739,0.0252 h 0.43689 q 0.0495,0 0.0739,-0.0252 0.0243,-0.0252 0.0243,-0.0729 z"
       id="text1"
       style="font-size:12.7px;line-height:1.25;font-family:Audiowide;-inkscape-font-specification:Audiowide;stroke-width:0.0399146"
       aria-label="Strato" /><path
       d="m 100.2086,124.17797 q 0,0.072 -0.0187,0.12998 -0.0178,0.0571 -0.0477,0.10116 -0.0299,0.0441 -0.0702,0.075 -0.0402,0.0309 -0.08327,0.0504 -0.04303,0.0195 -0.08794,0.0291 -0.04397,0.01 -0.08327,0.01 h -0.938307 v -0.24326 h 0.938307 q 0.07017,0 0.108525,-0.0411 0.03929,-0.0412 0.03929,-0.11044 0,-0.0335 -0.01033,-0.0619 -0.01033,-0.0281 -0.02994,-0.0486 -0.01871,-0.0204 -0.04678,-0.0318 -0.02714,-0.011 -0.06081,-0.011 H 99.25807 q -0.05894,0 -0.127231,-0.0204 -0.0683,-0.0216 -0.12723,-0.0683 -0.058,-0.0468 -0.09729,-0.1226 -0.03836,-0.0759 -0.03836,-0.18524 0,-0.1095 0.03836,-0.18431 0.03929,-0.0758 0.09729,-0.1226 0.05894,-0.0478 0.12723,-0.0682 0.06829,-0.0216 0.127231,-0.0216 h 0.82792 v 0.24323 h -0.82792 q -0.06923,0 -0.108512,0.0421 -0.03836,0.0421 -0.03836,0.11127 0,0.0702 0.03836,0.11126 0.03929,0.0403 0.108512,0.0403 h 0.559431 0.0019 q 0.03929,7.7e-4 0.08327,0.011 0.04398,0.01 0.087,0.03 0.04397,0.0205 0.08327,0.0524 0.0393,0.0309 0.0692,0.075 0.0309,0.044 0.0486,0.10105 0.0178,0.0571 0.0178,0.12903 z m 1.27509,0.0533 q 0,0.0627 -0.0159,0.11319 -0.0159,0.0497 -0.0421,0.088 -0.0262,0.0374 -0.0608,0.0646 -0.0346,0.0262 -0.0729,0.043 -0.0374,0.0168 -0.0767,0.0252 -0.0383,0.006 -0.0729,0.006 h -0.43875 q -0.0506,0 -0.1104,-0.0179 -0.0598,-0.0179 -0.11133,-0.058 -0.0505,-0.0412 -0.0851,-0.10584 -0.0337,-0.0654 -0.0337,-0.15996 v -0.32951 q 0,-0.0937 0.0337,-0.15809 0.0346,-0.0654 0.0851,-0.10584 0.0514,-0.0412 0.11133,-0.059 0.0598,-0.0179 0.1104,-0.0179 h 0.43875 q 0.0936,0 0.15903,0.0335 0.0655,0.0335 0.10574,0.0851 0.0402,0.0504 0.058,0.11045 0.0187,0.0598 0.0187,0.11128 z m -0.24323,-0.32742 q 0,-0.0504 -0.0252,-0.075 -0.0252,-0.0243 -0.0729,-0.0243 h -0.43688 q -0.0487,0 -0.0739,0.0252 -0.0252,0.0243 -0.0252,0.072 v 0.32929 q 0,0.0478 0.0252,0.0729 0.0252,0.0252 0.0739,0.0252 h 0.43688 q 0.0495,0 0.0739,-0.0252 0.0243,-0.0252 0.0243,-0.0729 z m 1.494,0.33397 q 0,0.0505 -0.0179,0.10949 -0.0179,0.058 -0.058,0.10854 -0.0392,0.0497 -0.10371,0.0833 -0.0637,0.0335 -0.1553,0.0335 h -0.43874 q -0.0504,0 -0.1095,-0.0179 -0.058,-0.0179 -0.10853,-0.0571 -0.0495,-0.0402 -0.0833,-0.10371 -0.0338,-0.0645 -0.0338,-0.15625 0,-0.0505 0.0178,-0.10949 0.0178,-0.0589 0.0571,-0.10854 0.0403,-0.0505 0.10393,-0.0842 0.0645,-0.0336 0.15621,-0.0336 h 0.43876 v 0.23199 h -0.43876 q -0.0495,0 -0.0766,0.0309 -0.0271,0.03 -0.0271,0.075 0,0.0478 0.0309,0.075 0.0318,0.0262 0.075,0.0262 h 0.43688 q 0.0497,0 0.0766,-0.03 0.0272,-0.03 0.0272,-0.075 v -0.33959 q 0,-0.0478 -0.03,-0.0758 -0.029,-0.028 -0.074,-0.028 h -0.53418 v -0.23107 h 0.53418 q 0.0505,0 0.10855,0.0179 0.059,0.0179 0.10853,0.058 0.0505,0.0392 0.0842,0.10372 0.0335,0.0637 0.0335,0.15529 z m 1.09266,-0.43312 h -0.54725 q -0.0497,0 -0.075,0.0252 -0.0252,0.0243 -0.0252,0.072 v 0.67075 h -0.24322 v -0.67075 q 0,-0.0628 0.0158,-0.11237 0.0159,-0.0497 0.0421,-0.087 0.0272,-0.0383 0.0618,-0.0645 0.0345,-0.0272 0.072,-0.0441 0.0383,-0.0168 0.0766,-0.0243 0.0392,-0.009 0.0729,-0.009 h 0.54916 z"
       id="text1-4"
       style="font-size:12.7px;line-height:1.25;font-family:Audiowide;-inkscape-font-specification:Audiowide;stroke-width:0.0399146"
       aria-label="Soar&#10;" /><g
       id="text1-4-8"
       style="font-size:5.2201px;line-height:1.25;font-family:Audiowide;-inkscape-font-specification:'Audiowide, Normal';stroke-width:0.108752"
       aria-label="          The High &#10;Altitude Glider"
       transform="matrix(0.15085897,0,0,0.15085897,88.750364,103.0083)"><path
         d="m 133.84829,138.33896 h -1.4605 v 2.99238 h -0.66271 v -2.99238 h -1.46306 v -0.6627 h 3.58627 z m 3.47667,2.99238 h -0.66271 v -1.82754 q 0,-0.12999 -0.0663,-0.19626 -0.0663,-0.0688 -0.19881,-0.0688 h -1.19542 v -0.66271 h 1.19542 q 0.0943,0 0.19881,0.0229 0.10451,0.0204 0.20646,0.0663 0.10451,0.0459 0.19881,0.1198 0.0943,0.0714 0.16568,0.17587 0.0714,0.10195 0.1147,0.23704 0.0433,0.1351 0.0433,0.30587 z m -2.39084,0 h -0.66271 v -3.92017 h 0.66271 z m 5.96182,-1.84283 q 0,0.13764 -0.0484,0.29822 -0.0484,0.15803 -0.15803,0.29566 -0.10705,0.1351 -0.28293,0.22685 -0.17332,0.0918 -0.42311,0.0918 h -1.19542 v -0.62957 h 1.19542 q 0.13509,0 0.20901,-0.0816 0.0739,-0.0841 0.0739,-0.20646 0,-0.12999 -0.0841,-0.20391 -0.0816,-0.0739 -0.19881,-0.0739 h -1.19542 q -0.13509,0 -0.20901,0.0841 -0.0739,0.0816 -0.0739,0.20391 v 0.92525 q 0,0.13254 0.0816,0.20646 0.0841,0.0739 0.20646,0.0739 h 1.19032 v 0.63212 h -1.19542 q -0.13764,0 -0.29822,-0.0484 -0.15803,-0.0484 -0.29567,-0.15549 -0.13509,-0.1096 -0.22685,-0.28292 -0.0918,-0.17587 -0.0918,-0.42566 v -0.93034 q 0,-0.13764 0.0484,-0.29567 0.0484,-0.16058 0.15548,-0.29567 0.1096,-0.13764 0.28293,-0.2294 0.17587,-0.0918 0.42566,-0.0918 h 1.19542 q 0.13764,0 0.29567,0.0484 0.16058,0.0484 0.29567,0.15803 0.13764,0.10705 0.2294,0.28292 0.0918,0.17333 0.0918,0.42312 z m 2.88533,-0.31861 h 2.32712 v -1.49364 h 0.66271 v 3.65508 h -0.66271 v -1.49364 h -2.32712 v 1.49364 h -0.66271 v -3.65508 h 0.66271 z m 4.36368,-1.15974 h -0.66271 v -0.59899 h 0.66271 z m 0,3.32118 h -0.66271 v -2.75533 h 0.66271 z m 3.63214,0.26509 q 0,0.17077 -0.0433,0.30586 -0.0433,0.13764 -0.1147,0.2396 -0.0714,0.1045 -0.16567,0.17587 -0.0943,0.0739 -0.19882,0.1198 -0.10195,0.0459 -0.209,0.0663 -0.10451,0.0229 -0.19882,0.0229 h -1.19542 v -0.66271 h 1.19542 q 0.13509,0 0.20136,-0.0688 0.0663,-0.0688 0.0663,-0.19881 v -2.09263 q 0,-0.12999 -0.0663,-0.19626 -0.0663,-0.0688 -0.20136,-0.0688 h -1.19542 q -0.12235,0 -0.19371,0.0765 -0.0714,0.0739 -0.0714,0.18862 v 0.8972 q 0,0.13 0.0688,0.19882 0.0688,0.0688 0.20136,0.0688 h 1.19032 v 0.6627 h -1.19542 q -0.0943,0 -0.19881,-0.0204 -0.10451,-0.0229 -0.20901,-0.0688 -0.10196,-0.0459 -0.19626,-0.11724 -0.0943,-0.0739 -0.16568,-0.17588 -0.0714,-0.1045 -0.1147,-0.23959 -0.0433,-0.13764 -0.0433,-0.30842 v -0.8972 q 0,-0.0943 0.0204,-0.19881 0.0229,-0.10451 0.0688,-0.20646 0.0459,-0.10451 0.11725,-0.19881 0.0739,-0.0943 0.17587,-0.16568 0.1045,-0.0714 0.23959,-0.1147 0.13509,-0.0433 0.30587,-0.0433 h 1.19542 q 0.0943,0 0.19882,0.0229 0.10705,0.0204 0.209,0.0663 0.10451,0.0459 0.19882,0.1198 0.0943,0.0714 0.16567,0.17587 0.0714,0.10195 0.1147,0.23704 0.0433,0.1351 0.0433,0.30587 z m 3.67039,-0.26509 h -0.66271 v -1.82754 q 0,-0.12999 -0.0663,-0.19626 -0.0663,-0.0688 -0.19881,-0.0688 h -1.19543 v -0.66271 h 1.19543 q 0.0943,0 0.19881,0.0229 0.1045,0.0204 0.20646,0.0663 0.1045,0.0459 0.19881,0.1198 0.0943,0.0714 0.16568,0.17587 0.0714,0.10195 0.1147,0.23704 0.0433,0.1351 0.0433,0.30587 z m -2.39085,0 h -0.66271 v -3.92017 h 0.66271 z"
         id="path5" /><path
         d="m 117.21177,147.85647 h -0.6627 v -0.89721 h -2.32968 v 0.89721 h -0.66271 v -1.82755 q 0,-0.40017 0.13764,-0.73662 0.13764,-0.33645 0.38234,-0.5786 0.24469,-0.24214 0.57859,-0.37723 0.3339,-0.13509 0.72898,-0.13509 h 1.49364 q 0.0688,0 0.12999,0.0255 0.0612,0.0255 0.10706,0.0714 0.0459,0.0459 0.0714,0.10705 0.0255,0.0612 0.0255,0.12999 z m -2.99238,-1.55991 h 2.32968 v -1.43247 h -1.16484 q -0.0306,0 -0.12999,0.0102 -0.0969,0.008 -0.22685,0.0433 -0.12745,0.0357 -0.27018,0.10961 -0.14274,0.0739 -0.26254,0.20391 -0.1198,0.12999 -0.19881,0.32625 -0.0765,0.19372 -0.0765,0.47154 z m 4.89894,1.55991 h -0.29567 q -0.14273,0 -0.30586,-0.0484 -0.16058,-0.0484 -0.30077,-0.15803 -0.14019,-0.11215 -0.23195,-0.28802 -0.0918,-0.17842 -0.0918,-0.43586 v -2.98983 h 0.66271 v 2.98983 q 0,0.12235 0.0765,0.19626 0.0765,0.0714 0.19116,0.0714 h 0.29567 z m 2.83181,-2.09263 h -1.15719 v 2.09263 h -0.67036 v -2.09263 h -0.86152 v -0.66271 h 0.86152 v -0.89975 h 0.67036 v 0.89975 h 1.15719 z m 1.10876,-1.22856 h -0.66271 v -0.59898 h 0.66271 z m 0,3.32119 h -0.66271 v -2.75534 h 0.66271 z m 3.14021,-2.09263 h -1.15719 v 2.09263 h -0.67035 v -2.09263 h -0.86152 v -0.66271 h 0.86152 v -0.89975 h 0.67035 v 0.89975 h 1.15719 z m 3.44863,1.75873 q 0,0.0714 -0.0255,0.13254 -0.0255,0.0612 -0.0714,0.10705 -0.0433,0.0433 -0.10451,0.0688 -0.0586,0.0255 -0.12744,0.0255 h -1.49874 q -0.12235,0 -0.26254,-0.028 -0.13763,-0.028 -0.27273,-0.0892 -0.13509,-0.0637 -0.26253,-0.15803 -0.12489,-0.0969 -0.2192,-0.23195 -0.0943,-0.13764 -0.15294,-0.31606 -0.0561,-0.17842 -0.0561,-0.40272 v -1.52933 h 0.66271 v 1.52933 q 0,0.12999 0.0433,0.2345 0.0459,0.10195 0.12234,0.17587 0.0765,0.0739 0.17843,0.1147 0.1045,0.0382 0.2243,0.0382 h 1.15974 v -2.09263 h 0.6627 z m 3.6449,-0.59644 q 0,0.17077 -0.0433,0.30841 -0.0433,0.13509 -0.1147,0.2396 -0.0714,0.10195 -0.16568,0.17587 -0.0943,0.0714 -0.19881,0.11725 -0.10196,0.0459 -0.20901,0.0688 -0.1045,0.0204 -0.19881,0.0204 h -1.19543 q -0.17077,0 -0.30586,-0.0433 -0.13509,-0.0433 -0.2396,-0.1147 -0.10195,-0.0739 -0.17587,-0.16823 -0.0714,-0.0943 -0.11725,-0.19626 -0.0459,-0.1045 -0.0688,-0.20901 -0.0204,-0.10705 -0.0204,-0.19881 v -0.89721 q 0,-0.25488 0.0918,-0.43076 0.0943,-0.17842 0.23195,-0.28802 0.14019,-0.11215 0.30332,-0.16058 0.16312,-0.0484 0.30076,-0.0484 h 1.19543 v 0.66271 h -1.19033 q -0.13254,0 -0.20136,0.0688 -0.0688,0.0663 -0.0688,0.19626 v 0.89211 q 0,0.13509 0.0663,0.20391 0.0688,0.0688 0.19881,0.0688 h 1.19543 q 0.13509,0 0.20136,-0.0688 0.0663,-0.0688 0.0663,-0.19881 v -2.98983 h 0.66271 z m 3.59646,-0.9125 q 0,0.13764 -0.0484,0.29822 -0.0484,0.15803 -0.15803,0.29567 -0.10705,0.13509 -0.28292,0.22685 -0.17332,0.0918 -0.42311,0.0918 h -1.19543 v -0.62957 h 1.19543 q 0.13509,0 0.209,-0.0816 0.0739,-0.0841 0.0739,-0.20646 0,-0.12999 -0.0841,-0.20391 -0.0816,-0.0739 -0.19881,-0.0739 h -1.19543 q -0.13509,0 -0.20901,0.0841 -0.0739,0.0816 -0.0739,0.20391 v 0.92524 q 0,0.13254 0.0816,0.20646 0.0841,0.0739 0.20646,0.0739 h 1.19033 v 0.63212 h -1.19543 q -0.13764,0 -0.29822,-0.0484 -0.15803,-0.0484 -0.29567,-0.15548 -0.13509,-0.1096 -0.22685,-0.28293 -0.0918,-0.17587 -0.0918,-0.42566 v -0.93034 q 0,-0.13764 0.0484,-0.29567 0.0484,-0.16058 0.15548,-0.29567 0.10961,-0.13764 0.28293,-0.2294 0.17587,-0.0918 0.42566,-0.0918 h 1.19543 q 0.13763,0 0.29566,0.0484 0.16058,0.0484 0.29567,0.15803 0.13764,0.10706 0.2294,0.28293 0.0918,0.17332 0.0918,0.42311 z m 5.82419,1.50894 q 0,0.0714 -0.0255,0.13254 -0.0255,0.0612 -0.0714,0.10705 -0.0433,0.0433 -0.1045,0.0688 -0.0612,0.0255 -0.13255,0.0255 h -2.39084 q -0.0918,0 -0.19881,-0.0204 -0.10451,-0.0229 -0.20901,-0.0688 -0.10196,-0.0459 -0.19627,-0.11725 -0.0943,-0.0739 -0.16822,-0.17587 -0.0714,-0.10451 -0.1147,-0.2396 -0.0433,-0.13764 -0.0433,-0.30841 v -1.79441 q 0,-0.0918 0.0204,-0.19626 0.0229,-0.10706 0.0688,-0.20901 0.0459,-0.10451 0.1198,-0.19881 0.0739,-0.0943 0.17587,-0.16568 0.1045,-0.0739 0.23959,-0.11725 0.13509,-0.0433 0.30587,-0.0433 h 2.69416 v 0.66271 h -2.69416 q -0.12999,0 -0.19881,0.0688 -0.0688,0.0688 -0.0688,0.20391 v 1.78931 q 0,0.12744 0.0688,0.19881 0.0714,0.0688 0.19881,0.0688 h 2.06204 v -0.83093 h -1.76382 v -0.66781 h 2.09262 q 0.0714,0 0.13255,0.028 0.0612,0.0255 0.1045,0.0714 0.0459,0.0459 0.0714,0.10705 0.0255,0.0586 0.0255,0.12744 z m 1.82754,0.3339 h -0.29567 q -0.14274,0 -0.30586,-0.0484 -0.16058,-0.0484 -0.30077,-0.15803 -0.14019,-0.11215 -0.23195,-0.28802 -0.0918,-0.17842 -0.0918,-0.43586 v -2.98983 h 0.66271 v 2.98983 q 0,0.12235 0.0765,0.19626 0.0765,0.0714 0.19116,0.0714 h 0.29567 z m 1.09857,-3.32119 h -0.66271 v -0.59898 h 0.66271 z m 0,3.32119 h -0.66271 v -2.75534 h 0.66271 z m 3.65764,-0.93034 q 0,0.17077 -0.0433,0.30841 -0.0433,0.13509 -0.1147,0.2396 -0.0714,0.10195 -0.16567,0.17587 -0.0943,0.0714 -0.19881,0.11725 -0.10196,0.0459 -0.20901,0.0688 -0.10451,0.0204 -0.19881,0.0204 h -1.19543 q -0.17077,0 -0.30586,-0.0433 -0.13509,-0.0433 -0.2396,-0.1147 -0.10195,-0.0739 -0.17587,-0.16823 -0.0714,-0.0943 -0.11725,-0.19626 -0.0459,-0.1045 -0.0688,-0.20901 -0.0204,-0.10705 -0.0204,-0.19881 v -0.89721 q 0,-0.25488 0.0918,-0.43076 0.0943,-0.17842 0.23195,-0.28802 0.14019,-0.11215 0.30331,-0.16058 0.16313,-0.0484 0.30077,-0.0484 h 1.19543 v 0.66271 h -1.19033 q -0.13254,0 -0.20136,0.0688 -0.0688,0.0663 -0.0688,0.19626 v 0.89211 q 0,0.13509 0.0663,0.20391 0.0688,0.0688 0.19881,0.0688 h 1.19543 q 0.13509,0 0.20136,-0.0688 0.0663,-0.0688 0.0663,-0.19881 v -2.98983 h 0.66271 z m 3.59646,-0.9125 q 0,0.13764 -0.0484,0.29822 -0.0484,0.15803 -0.15803,0.29567 -0.10705,0.13509 -0.28292,0.22685 -0.17333,0.0918 -0.42312,0.0918 h -1.19542 v -0.62957 h 1.19542 q 0.13509,0 0.20901,-0.0816 0.0739,-0.0841 0.0739,-0.20646 0,-0.12999 -0.0841,-0.20391 -0.0816,-0.0739 -0.19882,-0.0739 h -1.19542 q -0.13509,0 -0.20901,0.0841 -0.0739,0.0816 -0.0739,0.20391 v 0.92524 q 0,0.13254 0.0816,0.20646 0.0841,0.0739 0.20646,0.0739 h 1.19032 v 0.63212 h -1.19542 q -0.13764,0 -0.29822,-0.0484 -0.15803,-0.0484 -0.29567,-0.15548 -0.13509,-0.1096 -0.22685,-0.28293 -0.0918,-0.17587 -0.0918,-0.42566 v -0.93034 q 0,-0.13764 0.0484,-0.29567 0.0484,-0.16058 0.15548,-0.29567 0.1096,-0.13764 0.28293,-0.2294 0.17587,-0.0918 0.42566,-0.0918 h 1.19542 q 0.13764,0 0.29567,0.0484 0.16058,0.0484 0.29567,0.15803 0.13764,0.10706 0.2294,0.28293 0.0918,0.17332 0.0918,0.42311 z m 2.85729,-0.24979 h -1.49109 q -0.13509,0 -0.20391,0.0688 -0.0688,0.0663 -0.0688,0.19626 v 1.82755 h -0.66271 v -1.82755 q 0,-0.17077 0.0433,-0.30586 0.0433,-0.13509 0.1147,-0.23705 0.0739,-0.1045 0.16823,-0.17587 0.0943,-0.0739 0.19626,-0.1198 0.1045,-0.0459 0.20901,-0.0663 0.10705,-0.0229 0.19881,-0.0229 h 1.49619 z"
         id="path6" /></g><path
       style="fill:none;stroke:#000000;stroke-width:0.124446px;stroke-linecap:butt;stroke-linejoin:miter;stroke-opacity:1"
       d="m 99.271774,127.1098 1.602256,-0.0465 c 0,0 2.57828,-1.22988 3.51005,-1.78735 1.33867,-0.8009 2.9145,-2.00826 2.9145,-2.00826 0.63596,0.0931 2.25344,0.18387 3.22924,0.16881 1.20672,-0.0185 1.84387,-0.2051 1.87305,-0.4955 0.0181,-0.18043 -1.09943,-0.69023 -2.07795,-0.88497 -1.00452,-0.1999 -2.04433,-0.12615 -2.04433,-0.12615 0,0 1.24972,-2.26453 1.6378,-3.07733 0.29201,-0.61167 0.54037,-1.56781 0.5432,-2.25505 0.003,-0.62282 -0.27755,-0.80555 -0.27755,-0.80555 l -0.27074,0.089 c 0.019,0.36621 -0.0586,0.54151 -0.14389,0.8644 -0.19414,0.73442 -0.55135,1.26858 -1.0146,1.98549 -1.47729,2.28634 -2.21647,3.26132 -2.21647,3.26132 0,0 -1.03412,0.22949 -2.75044,0.4058 -1.26953,0.13038 -4.887474,0.13866 -4.887474,0.13866 l -1.057795,-2.17783 c 0,0 0.389547,-0.46436 0.26445,-0.66888 -0.08427,-0.13778 -0.482229,-0.0465 -0.482229,-0.0465 l -0.980017,0.60667 -0.466675,0.0466 -0.01557,0.34223 c 0,0 -0.380613,0.21583 -0.311117,0.35778 0.04109,0.084 0.280004,-0.0155 0.280004,-0.0155 l 0.0311,1.80449 c 0,0 1.014752,0.12246 1.52447,0.15554 1.232313,0.0802 2.468853,0.07 3.703273,0.10488 1.33229,0.0377 3.99685,0.11304 3.99685,0.11304 -0.88913,0.74906 -1.71719,1.33345 -2.74485,2.05067 -0.92731,0.64722 -1.91111,1.13003 -2.894601,1.70636 0,0 -0.328133,-0.23635 -0.520647,-0.27253 -0.09229,-0.0174 -0.188267,-0.0396 -0.280005,0.0311 -0.14381,0.11073 0.326669,0.4356 0.326669,0.4356 z"
       id="path1"
       sodipodi:nodetypes="ccscssscssccsscsccsccccsccsscscsscc" /></g></svg>
